{
  "accessors": [
    {
      "bufferView": 2,
      "componentType": 5126,
      "count": 766,
      "max": [
        6.603270053863525,
        4.504543781280518,
        2.671999931335449
      ],
      "min": [
        0.0,
        0.0,
        -0.0
      ],
      "type": "VEC3"
    },
    {
      "bufferView": 2,
      "byteOffset": 9192,
      "componentType": 5126,
      "count": 766,
      "max": [
        1.0,
        1.0,
        1.0
      ],
      "min": [
        -1.0,
        -1.0,
        -1.0
      ],
      "type": "VEC3"
    },
    {
      "bufferView": 1,
      "componentType": 5126,
      "count": 766,
      "max": [
        599.9151611328125,
        489.72705078125
      ],
      "min": [
        -478.72705078125,
        -254.363525390625
      ],
      "type": "VEC2"
    },
    {
      "bufferView": 0,
      "componentType": 5125,
      "count": 1668,
      "type": "SCALAR"
    },
    {
      "bufferView": 2,
      "byteOffset": 18384,
      "componentType": 5126,
      "count": 1327,
      "max": [
        6.603270053863525,
        4.504543781280518,
        2.671999931335449
      ],
      "min": [
        1.1484930515289307,
        0.0,
        1.1449999809265137
      ],
      "type": "VEC3"
    },
    {
      "bufferView": 2,
      "byteOffset": 34308,
      "componentType": 5126,
      "count": 1327,
      "max": [
        1.0,
        1.0,
        1.0
      ],
      "min": [
        -0.9999680519104004,
        -1.0,
        -0.9999904632568359
      ],
      "type": "VEC3"
    },
      {
        "bufferView": 1,
        "byteOffset": 6128,
        "componentType": 5126,
        "count": 1327,
        "max": [
          168.53562927246094,
          367.56634521484375
        ],
        "min": [
          -281.91876220703125,
          -302.1739807128906
        ],
        "type": "VEC2"
      },
      {
        "bufferView": 0,
        "byteOffset": 6672,
        "componentType": 5125,
        "count": 5358,
        "type": "SCALAR"
      }
    ],
    "asset": {
      "extras": {
        "author": "UNKNOWN_AUTHOR",
        "license": "CC-BY-4.0 (http://creativecommons.org/licenses/by/4.0/)",
        "source": "UNKNOWN_SOURCE",
        "title": "Stair Case 555"
      },
      "generator": "UNKNOWN_GENERATOR",
      "version": "2.0"
    },
    "bufferViews": [
      {
        "buffer": 0,
        "byteLength": 28104,
        "name": "floatBufferViews",
        "target": 34963
      },
      {
        "buffer": 0,
        "byteLength": 16744,
        "byteOffset": 28104,
        "byteStride": 8,
        "name": "floatBufferViews",
        "target": 34962
      },
      {
        "buffer": 0,
        "byteLength": 50232,
        "byteOffset": 44848,
        "byteStride": 12,
        "name": "floatBufferViews",
        "target": 34962
      }
    ],
    "buffers": [
      {
        "byteLength": 95080,
        "uri": "scene.bin"
      }
    ],
    "extensionsRequired": [
      "KHR_materials_pbrSpecularGlossiness"
    ],
    "extensionsUsed": [
      "KHR_materials_pbrSpecularGlossiness"
    ],
    "materials": [
      {
        "doubleSided": true,
        "extensions": {
          "KHR_materials_pbrSpecularGlossiness": {
            "diffuseFactor": [
              0.8,
              0.8,
              0.8,
              1.0
            ],
            "glossinessFactor": 0.5,
            "specularFactor": [
              0.0,
              0.0,
              0.0
            ]
          }
        },
        "name": "245245245"
      },
      {
        "doubleSided": true,
        "extensions": {
          "KHR_materials_pbrSpecularGlossiness": {
            "diffuseFactor": [
              0.8,
              0.8,
              0.8,
              1.0
            ],
            "glossinessFactor": 0.5,
            "specularFactor": [
              0.6820276497695853,
              0.6820276497695853,
              0.6820276497695853
            ]
          }
        },
        "name": "191191191"
      }
    ],
    "meshes": [
      {
        "name": "Object_0",
        "primitives": [
          {
            "attributes": {
              "NORMAL": 1,
              "POSITION": 0,
              "TEXCOORD_0": 2
            },
            "indices": 3,
            "material": 0,
            "mode": 4
          }
        ]
      },
      {
        "name": "Object_1",
        "primitives": [
          {
            "attributes": {
              "NORMAL": 5,
              "POSITION": 4
            },
            "indices": 7,
            "material": 1,
            "mode": 4
          }
        ]
      }
    ],
    "nodes": [
      {
        "children": [
          1
        ],
        "matrix": [
          1.0,
          0.0,
          0.0,
          0.0,
          0.0,
          2.220446049250313e-16,
          -1.0,
          0.0,
          0.0,
          1.0,
          2.220446049250313e-16,
          0.0,
          0.0,
          0.0,
          0.0,
          1.0
        ],
        "name": "UNKNOWN_MODEL"
      },
      {
        "children": [
          2
        ],
        "name": "root"
      },
      {
        "children": [
          3
        ],
        "matrix": [
          1.0,
          0.0,
          0.0,
          0.0,
          0.0,
          2.220446049250313e-16,
          1.0,
          0.0,
          0.0,
          -1.0,
          2.220446049250313e-16,
          0.0,
          0.0,
          0.0,
          0.0,
          1.0
        ],
        "name": "GLTF_SceneRootNode"
      },
      {
        "children": [
          4,
          5
        ],
        "name": "StairCase111_2"
      },
      {
        "mesh": 0,
        "name": "Object_4"
      },
      {
        "mesh": 1,
        "name": "Object_5"
      }
    ],
    "scene": 0,
    "scenes": [
      {
        "name": "UNKNOWN_SCENE",
      "nodes": [
        0
      ]
    }
  ]
}
