{
  "accessors": [
    {
      "bufferView": 1,
      "componentType": 5126,
      "count": 288,
      "max": [
        0.03466362506151199,
        3.3166537284851074,
        0.7088501453399658
      ],
      "min": [
        -0.009550489485263824,
        0.3470320701599121,
        -2.356593370437622
      ],
      "type": "VEC3"
    },
    {
      "bufferView": 1,
      "byteOffset": 3456,
      "componentType": 5126,
      "count": 288,
      "max": [
        0.9807853698730469,
        0.7210187315940857,
        0.9809092283248901
      ],
      "min": [
        -0.9807852506637573,
        -1.0,
        -0.9809092283248901
      ],
      "type": "VEC3"
    },
    {
      "bufferView": 0,
      "componentType": 5125,
      "count": 468,
      "type": "SCALAR"
    },
    {
      "bufferView": 1,
      "byteOffset": 6912,
      "componentType": 5126,
      "count": 3444,
      "max": [
        1.288349986076355,
        3.599999189376831,
        0.12000000476837158
      ],
      "min": [
        -0.30000028014183044,
        0.0,
        -2.927999973297119
      ],
      "type": "VEC3"
    },
    {
      "bufferView": 1,
      "byteOffset": 48240,
      "componentType": 5126,
      "count": 3444,
      "max": [
        0.9807870388031006,
        1.0,
        1.0
      ],
      "min": [
        -1.0,
        -1.0,
        -1.0
      ],
      "type": "VEC3"
    },
    {
      "bufferView": 0,
      "byteOffset": 1872,
      "componentType": 5125,
      "count": 6216,
      "type": "SCALAR"
    },
    {
      "bufferView": 1,
      "byteOffset": 89568,
      "componentType": 5126,
      "count": 288,
      "max": [
        0.03466362506151199,
        3.3166537284851074,
        0.7088501453399658
      ],
      "min": [
        -0.009550489485263824,
        0.3470320701599121,
        -2.356593370437622
      ],
      "type": "VEC3"
    },
    {
      "bufferView": 1,
      "byteOffset": 93024,
      "componentType": 5126,
      "count": 288,
      "max": [
        0.9807853698730469,
        0.7210187315940857,
        0.9809092283248901
      ],
      "min": [
        -0.9807852506637573,
        -1.0,
        -0.9809092283248901
      ],
      "type": "VEC3"
    },
    {
      "bufferView": 0,
      "byteOffset": 26736,
      "componentType": 5125,
      "count": 468,
      "type": "SCALAR"
    },
    {
      "bufferView": 1,
      "byteOffset": 96480,
      "componentType": 5126,
      "count": 3444,
      "max": [
        1.288349986076355,
        3.599999189376831,
        0.12000000476837158
      ],
      "min": [
        -0.30000028014183044,
        0.0,
        -2.927999973297119
      ],
      "type": "VEC3"
    },
    {
      "bufferView": 1,
      "byteOffset": 137808,
      "componentType": 5126,
      "count": 3444,
      "max": [
        0.9807870388031006,
        1.0,
        1.0
      ],
      "min": [
        -1.0,
        -1.0,
        -1.0
      ],
      "type": "VEC3"
    },
    {
      "bufferView": 0,
      "byteOffset": 28608,
      "componentType": 5125,
      "count": 6216,
      "type": "SCALAR"
    }
  ],
  "asset": {
    "extras": {
      "author": "game_travel (https://sketchfab.com/game_travel)",
      "license": "CC-BY-4.0 (http://creativecommons.org/licenses/by/4.0/)",
      "source": "https://sketchfab.com/3d-models/stair-low-poly-430fd3c1bab943138d3197318e05801d",
      "title": "Stair (Low Poly)"
    },
    "generator": "Sketchfab-12.65.0",
    "version": "2.0"
  },
  "bufferViews": [
    {
      "buffer": 0,
      "byteLength": 53472,
      "name": "floatBufferViews",
      "target": 34963
    },
    {
      "buffer": 0,
      "byteLength": 179136,
      "byteOffset": 53472,
      "byteStride": 12,
      "name": "floatBufferViews",
      "target": 34962
    }
  ],
  "buffers": [
    {
      "byteLength": 232608,
      "uri": "scene.bin"
    }
  ],
  "materials": [
    {
      "doubleSided": true,
      "name": "White.001",
      "pbrMetallicRoughness": {
        "baseColorFactor": [
          0.8,
          0.8,
          0.8,
          1.0
        ],
        "metallicFactor": 0.0,
        "roughnessFactor": 0.5
      }
    },
    {
      "doubleSided": true,
      "name": "White.002",
      "pbrMetallicRoughness": {
        "baseColorFactor": [
          0.8,
          0.8,
          0.8,
          1.0
        ],
        "metallicFactor": 0.0,
        "roughnessFactor": 0.5
      }
    }
  ],
  "meshes": [
    {
      "name": "Object_0",
      "primitives": [
        {
          "attributes": {
            "NORMAL": 1,
            "POSITION": 0
          },
          "indices": 2,
          "material": 0,
          "mode": 4
        }
      ]
    },
    {
      "name": "Object_1",
      "primitives": [
        {
          "attributes": {
            "NORMAL": 4,
            "POSITION": 3
          },
          "indices": 5,
          "material": 0,
          "mode": 4
        }
      ]
    },
    {
      "name": "Object_2",
      "primitives": [
        {
          "attributes": {
            "NORMAL": 7,
            "POSITION": 6
          },
          "indices": 8,
          "material": 0,
          "mode": 4
        }
      ]
    },
    {
      "name": "Object_3",
      "primitives": [
        {
          "attributes": {
            "NORMAL": 10,
            "POSITION": 9
          },
          "indices": 11,
          "material": 1,
          "mode": 4
        }
      ]
    }
  ],
  "nodes": [
    {
      "children": [
        1
      ],
      "matrix": [
        1.0,
        0.0,
        0.0,
        0.0,
        0.0,
        2.220446049250313e-16,
        -1.0,
        0.0,
        0.0,
        1.0,
        2.220446049250313e-16,
        0.0,
        0.0,
        0.0,
        0.0,
        1.0
      ],
      "name": "Sketchfab_model"
    },
    {
      "children": [
        2
      ],
      "name": "root"
    },
    {
      "children": [
        3,
        5,
        7,
        9
      ],
      "matrix": [
        1.0,
        0.0,
        0.0,
        0.0,
        0.0,
        2.220446049250313e-16,
        1.0,
        0.0,
        0.0,
        -1.0,
        2.220446049250313e-16,
        0.0,
        0.0,
        0.0,
        0.0,
        1.0
      ],
      "name": "GLTF_SceneRootNode"
    },
    {
      "children": [
        4
      ],
      "matrix": [
        1.0,
        0.0,
        0.0,
        0.0,
        0.0,
        1.0,
        0.0,
        0.0,
        0.0,
        0.0,
        1.0,
        0.0,
        -0.7734159827232361,
        0.36164963245391846,
        -0.1744433045387268,
        1.0
      ],
      "name": "Obj_Handrail_2"
    },
    {
      "mesh": 0,
      "name": "Object_4"
    },
    {
      "children": [
        6
      ],
      "matrix": [
        1.0,
        0.0,
        0.0,
        0.0,
        0.0,
        1.0,
        0.0,
        0.0,
        0.0,
        0.0,
        1.0,
        0.0,
        -0.4941748380661011,
        0.0007697045803070068,
        0.36000001430511475,
        1.0
      ],
      "name": "Obj_Stair_3"
    },
    {
      "mesh": 1,
      "name": "Object_6"
    },
    {
      "children": [
        8
      ],
      "matrix": [
        1.0,
        0.0,
        0.0,
        0.0,
        0.0,
        1.0,
        0.0,
        0.0,
        0.0,
        0.0,
        1.0,
        0.0,
        0.7734159827232361,
        0.36164963245391846,
        -0.1744433045387268,
        1.0
      ],
      "name": "Obj_Handrail.001_4"
    },
    {
      "mesh": 2,
      "name": "Object_8"
    },
    {
      "children": [
        10
      ],
      "matrix": [
        1.0,
        0.0,
        0.0,
        0.0,
        0.0,
        1.0,
        0.0,
        0.0,
        0.0,
        0.0,
        1.0,
        0.0,
        -0.4941748380661011,
        0.0007697045803070068,
        0.36000001430511475,
        1.0
      ],
      "name": "Obj_Stair_Base_5"
    },
    {
      "mesh": 3,
      "name": "Object_10"
    }
  ],
  "scene": 0,
  "scenes": [
    {
      "name": "Sketchfab_Scene",
      "nodes": [
        0
      ]
    }
  ]
}
